<?xml version="1.0" encoding="utf-8"?>
<!-- Generator: Adobe Illustrator 16.0.0, SVG Export Plug-In . SVG Version: 6.00 Build 0)  -->
<!DOCTYPE svg PUBLIC "-//W3C//DTD SVG 1.1//EN" "http://www.w3.org/Graphics/SVG/1.1/DTD/svg11.dtd">
<svg version="1.1" id="Layer_1" xmlns="http://www.w3.org/2000/svg" xmlns:xlink="http://www.w3.org/1999/xlink" x="0px" y="0px"
	 width="800px" height="500px" viewBox="0 0 800 500" enable-background="new 0 0 800 500" xml:space="preserve">
<g>
	<path fill="none" stroke="#CCCCCC" stroke-width="3" d="M123.224,348.275c-2.829-0.438-12.625-4.353-15.02-5.661
		c-3.264-1.959-5.006-6.093-4.569-10.883c0.434-2.61,4.569-33.519,6.528-40.267c1.959-6.748,5.877-21.554,7.62-25.688
		c1.74-4.135,5.875-5.878,9.578-5.657c3.7,0.217,43.75,1.305,45.709,1.305c2.177,0.218,5.44,0.871,7.836,1.741
		c2.396,0.873,47.234,10.664,51.37,11.317c4.138,0.655,13.279,0.872,23.508,0.872c10.233,0,37.083,0.638,42.704,0.538
		c5.62-0.102,9.101-0.973,15.197-3.368c6.095-2.394,41.792-12.405,44.84-13.494c2.293-0.819,4.356-1.244,6.749-1.307
		c2.391-0.062,15.889,0.652,18.703,1.052c2.82,0.398,4.805,1.344,7.199,3.083c2.396,1.742,39.964,26.499,43.274,28.595
		c3.308,2.099,6.851,2.873,8.312,2.969c2.833,0.18,10.445,0.55,20.027,0.872c6.529,0.214,7.834,1.957,35.26,25.901
		c2.367,2.064,2.613,5.007,2.613,8.488c0,3.055,0.436,5.223,2.612,5.877c4.5,1.351,38.964,6.094,38.964,6.094
		s2.611-16.977,3.265-20.896c0.679-4.084,3.048-6.529,6.747-6.094c9.944,1.169,64.648,6.965,68.129,7.399
		c3.484,0.436,5.009,2.613,4.793,5.226c-0.221,2.609-1.743,18.065-1.743,20.896c0,2.647,0.435,4.572,3.699,4.79
		c1.742,0.217,52.239,3.7,54.637,3.918c2.394,0.216,4.136,1.306,3.917,3.917c-0.219,1.961-7.4,77.273-7.835,80.103
		c-0.219,1.958-2.177,2.829-4.572,2.613c-2.393-0.22-22.201-0.655-24.597-0.871c-2.394-0.219-4.569,1.087-4.786,4.353
		c-0.22,3.268-4.791,37.876-4.791,37.876l-44.188-0.438c0,0,4.898-34.502,5.226-38.31s-2.177-5.987-5.66-5.878
		c-3.481,0.11-53.437-2.283-57.682-2.394c-4.245-0.107-5.333-1.632-4.79-6.096c0.545-4.461,8.491-54.742,8.925-57.682
		c0.438-2.938-0.872-5.55-4.135-5.878c-3.267-0.326-28.624-3.37-31.778-3.481c-3.157-0.107-5.444,0.872-6.748,2.177
		c-1.309,1.305-8.46,8.904-9.797,9.796c-1.958,1.305-5.225,1.958-8.488,1.958c-1.522,0-25.033,0.218-27.862-0.216
		c-2.503-0.438-4.463-1.416-6.093-4.571c-1.961-3.701-4.68-7.185-10.014-7.4c-5.333-0.22-82.926-3.174-89.463-3.483
		c-4.572-0.217-5.443,1.521-5.661,4.354c-0.301,3.93-6.093,62.25-6.31,65.083c-0.219,2.828,0.216,5.658,0.871,7.616
		c0.651,1.96,8.707,28.297,8.707,28.297l-38.31-12.188c0,0,6.093-13.496,8.271-18.067c2.177-4.572,2.829-6.748,3.483-11.539
		c0.652-4.786,5.005-58.114,5.657-62.906c0.438-3.916-1.305-6.092-5.657-6.311c-5.226-0.435-66.609-2.178-72.269-2.614
		c-5.657-0.434-41.575-1.086-48.32-1.306C190.268,352.193,126.053,348.709,123.224,348.275z"/>
	<path fill="none" stroke="#CCCCCC" stroke-width="6" d="M563.57,314.971c0,0-41.304-102.848-42.445-105.786
		c-1.144-2.939-2.121-6.368-1.525-9.577c0.601-3.211,1.035-5.116,1.197-7.185c0.163-2.066-0.325-3.808-1.631-4.245
		c-1.308-0.434-5.224-2.013-10.014-3.701c-4.788-1.684-5.985-5.496-6.748-9.902c-0.216-2.775,0.6-5.877,2.231-7.672
		c2.822-3.105,31.291-29.877,31.291-29.877s2.503-2.393,3.481-4.242c0.709-1.338,1.197-4.68,1.197-4.68l2.396-34.83
		c0,0,0-2.175,2.938-3.59c2.677-1.29,4.569,1.305,4.569,1.305l19.702,22.094c0,0,0.652,1.198,2.5,1.414
		c1.208,0.144,2.831-0.435,2.831-0.435l15.129-7.509c0,0,1.85-0.763,2.284-3.157c0.432-2.376-1.306-3.701-1.306-3.701L516.445,20.9
		c0,0-1.636-1.96-1.198-3.483c0.55-1.924,2.611-1.958,2.611-1.958l38.637-2.177c0,0,1.632,0.108,2.393-1.416
		c0.654-1.306-0.215-2.829-0.215-2.829l-4.137-8.163L537.449-26.77"/>
	<path fill="none" stroke="#CCCCCC" stroke-width="6" d="M-1.5,182.193l50.498-9.578c0,0,4.87-0.705,7.022,2.775
		c1.141,1.85,2.611,4.734,2.611,4.734l6.476,10.774c0,0,1.958,3.92,5.223,4.791c3.879,1.034,12.409,0.435,12.409,0.435l90.766,0.871
		c0,0,3.752,0.361,7.946-1.198c3.808-1.414,7.292-4.245,7.292-4.245l11.32-10.229c0,0,2.464-2.177,6.093-2.177
		c3.048,0,6.313,2.828,6.313,2.828l8.924,8.491c0,0,1.305,1.524,3.483,1.74c1.96,0.197,6.529-1.958,6.529-1.958l31.999-16.76
		c0,0,3.7-1.96,8.161-2.503l17.959-0.327l42.881-0.218c0,0,29.167-1.742,44.623,1.851c2.342,0.546,31.342,7.509,44.077,8.488
		c14.092,1.084,32.65-8.813,47.995-3.59c17.004,5.788,32.978,3.59,50.609,10.447c0,0,10.089,3.115,16.653,0.653
		c5.224-1.959,9.466-5.55,9.466-5.55l17.308-12.409c0,0,5.55-4.569,12.079-3.59c5.497,0.825,10.775,5.551,10.775,5.551
		s68.891,65.954,135.171,97.298l80.537,28.841"/>
	<path fill="none" stroke="#CCCCCC" stroke-width="14" d="M799.523,473.436l-79.232-0.437c-19.589,0-34.788,9.759-67.911,10.448
		c-41.791,0.871-70.526,0.438-90.115,0c-19.171-0.426-45.275-9.578-73.14-9.142c-26.147,0.41-63.985,0.515-100.562,0
		c-30.908-0.437-62.632-16.658-96.642-22.201c-40.053-6.533-74.88-14.804-90.118-19.592c-19.392-6.092-42.228-13.495-65.301-16.107
		c-28.199-3.192-99.258,5.66-99.258,5.66L-1.5,426.787"/>
</g>
<polygon fill="#E7E6E6" stroke="#30302E" stroke-width="0.25" points="484.318,116.502 494.837,119.774 531.076,122.113 
	511.437,94.993 503.021,95.927 491.8,78.161 476.367,85.175 474.031,118.606 "/>
<polygon fill="#F59337" stroke="#30302E" stroke-width="0.25" points="515.646,119.774 498.345,101.305 488.291,99.903 
	485.253,83.071 478.941,86.109 475.668,116.971 484.553,114.631 495.774,118.373 "/>
<polygon fill="#E7E6E6" stroke="#30302E" stroke-width="0.25" points="391.883,157.113 383.206,159.813 353.317,161.74 
	369.515,139.372 376.458,140.144 385.712,125.487 398.439,131.273 400.366,158.848 "/>
<polygon fill="#F59337" stroke="#30302E" stroke-width="0.25" points="366.044,159.813 380.313,144.581 388.604,143.424 
	391.112,129.54 396.318,132.045 399.018,157.498 391.69,155.57 382.433,158.655 "/>
<polygon fill="#E7E6E6" stroke="#30302E" stroke-width="0.25" points="664.99,81.015 657.773,83.368 632.837,85.324 646.104,66.456 
	651.91,67.021 659.473,54.675 670.167,59.359 672.095,82.364 "/>
<polygon fill="#F59337" stroke="#30302E" stroke-width="0.25" points="643.44,83.565 655.18,70.682 662.095,69.617 664.024,57.994 
	668.404,60.029 670.952,81.253 664.811,79.727 657.116,82.412 "/>
<polygon fill="#E7E6E6" stroke="#30302E" stroke-width="0.25" points="618.46,136.583 608.932,139.547 576.113,141.666 
	593.899,117.105 601.521,117.95 611.683,101.86 625.66,108.214 627.775,138.489 "/>
<polygon fill="#F59337" stroke="#30302E" stroke-width="0.25" points="590.089,139.547 605.756,122.82 614.858,121.552 
	617.614,106.307 623.328,109.058 626.294,137.007 618.248,134.89 608.086,138.277 "/>
<polygon fill="#E7E6E6" stroke="#30302E" stroke-width="0.25" points="704.297,203.753 691.295,207.799 646.509,210.688 
	670.779,177.171 681.183,178.326 695.052,156.368 714.123,165.033 717.012,206.354 "/>
<polygon fill="#F59337" stroke="#30302E" stroke-width="0.25" points="665.579,207.799 686.96,184.973 699.386,183.238 
	703.143,162.434 710.942,166.19 714.987,204.33 704.01,201.441 690.141,206.066 "/>
<polygon fill="#E7E6E6" stroke="#30302E" stroke-width="0.25" points="362.698,250.659 349.467,254.776 303.897,257.718 
	328.593,223.612 339.177,224.788 353.29,202.445 372.695,211.266 375.636,253.308 "/>
<polygon fill="#F59337" stroke="#30302E" stroke-width="0.25" points="323.301,254.776 345.058,231.551 357.701,229.787 
	361.522,208.618 369.46,212.441 373.576,251.249 362.404,248.309 348.291,253.013 "/>
<polygon fill="#E7E6E6" stroke="#30302E" stroke-width="0.25" points="459.427,166.876 467.101,169.261 493.518,170.966 
	479.199,151.195 473.063,151.877 464.883,138.922 453.635,144.037 451.931,168.409 "/>
<polygon fill="#F59337" stroke="#30302E" stroke-width="0.25" points="482.27,169.261 469.654,155.797 462.328,154.774 
	460.112,142.502 455.51,144.719 453.124,167.215 459.601,165.513 467.78,168.239 "/>
<polygon fill="#E7E6E6" stroke="#30302E" stroke-width="0.25" points="309.174,152.811 301.687,155.14 275.896,156.804 
	289.873,137.503 295.862,138.169 303.849,125.526 314.828,130.515 316.493,154.309 "/>
<polygon fill="#F59337" stroke="#30302E" stroke-width="0.25" points="286.877,155.14 299.189,141.997 306.346,140.999 
	308.507,129.02 313,131.183 315.328,153.145 309.008,151.48 301.021,154.143 "/>
<polygon fill="#E7E6E6" stroke="#30302E" stroke-width="0.25" points="62.147,151.693 54.971,153.927 30.256,155.521 
	43.651,137.025 49.392,137.664 57.044,125.544 67.569,130.328 69.164,153.129 "/>
<polygon fill="#F59337" stroke="#30302E" stroke-width="0.25" points="40.78,153.927 52.578,141.331 59.436,140.374 61.509,128.893 
	65.813,130.965 68.047,152.013 61.988,150.42 54.335,152.97 "/>
<polygon fill="#E7E6E6" stroke="#30302E" stroke-width="0.25" points="308.664,187.699 315.055,189.689 337.074,191.107 
	325.139,174.632 320.026,175.198 313.21,164.402 303.833,168.665 302.413,188.979 "/>
<polygon fill="#F59337" stroke="#30302E" stroke-width="0.25" points="327.697,189.689 317.187,178.466 311.078,177.613 
	309.232,167.386 305.396,169.233 303.407,187.983 308.805,186.563 315.624,188.835 "/>
<polygon fill="#E7E6E6" stroke="#30302E" stroke-width="0.25" points="217.124,162.59 207.54,165.569 174.527,167.699 
	192.419,142.996 200.084,143.848 210.309,127.661 224.365,134.05 226.496,164.505 "/>
<polygon fill="#F59337" stroke="#30302E" stroke-width="0.25" points="188.586,165.569 204.346,148.745 213.503,147.468 
	216.271,132.135 222.022,134.902 225.004,163.016 216.91,160.884 206.689,164.292 "/>
<polygon fill="#E7E6E6" stroke="#30302E" stroke-width="0.25" points="426.479,38.014 434.982,40.658 464.276,42.55 448.401,20.626 
	441.6,21.383 432.527,7.02 420.054,12.689 418.164,39.714 "/>
<polygon fill="#F59337" stroke="#30302E" stroke-width="0.25" points="451.803,40.658 437.817,25.729 429.691,24.595 
	427.234,10.989 422.13,13.447 419.487,38.392 426.668,36.501 435.739,39.525 "/>
<polygon fill="#E7E6E6" stroke="#30302E" stroke-width="0.25" points="397.418,94.158 388.337,96.985 357.058,99.004 374.01,75.596 
	381.273,76.399 390.96,61.064 404.28,67.121 406.299,95.976 "/>
<polygon fill="#F59337" stroke="#30302E" stroke-width="0.25" points="370.377,96.985 385.31,81.042 393.986,79.834 396.611,65.302 
	402.059,67.925 404.885,94.564 397.217,92.546 387.531,95.775 "/>
<text transform="matrix(1 0 0 1 399.4082 478.5996)" fill="#303030" stroke="#303030" stroke-width="0.25" font-family="'OpenSans'" font-size="12.2195">Northside Drive</text>
<text transform="matrix(0.9999 0.0098 -0.0098 1 97.2754 199.2847)" fill="#303030" font-family="'OpenSans'" font-size="8.5536">Northside Trail</text>
<text transform="matrix(0.7757 0.631 -0.631 0.7757 597.6377 187.4487)" fill="#303030" font-family="'OpenSans'" font-size="8.5536">Northside Trail</text>
<text transform="matrix(0.9935 0.114 -0.114 0.9935 565.8555 404.7178)" fill="#CCCCCC" stroke="#CCCCCC" stroke-width="0.5" font-family="'OpenSans-Semibold'" font-size="38.1859">P</text>
<rect x="407.346" y="414.347" fill="none" width="131.907" height="32.647"/>
<text transform="matrix(1 0 0 1 407.3457 433.501)" fill="#CCCCCC" stroke="#CCCCCC" stroke-width="0.75" font-family="'OpenSans-Semibold'" font-size="25.2027">Camp 4</text>
<text transform="matrix(0.6887 0.725 -0.725 0.6887 523.3799 32.2925)" fill="#303030" font-family="'OpenSans'" font-size="8.5536">Yosemite Falls Trail</text>
<g>
	<g>
		<path fill="none" stroke="#CCCCCC" stroke-width="0.5" d="M275.539,236.418c0.784,0.012,1.576,0.025,2.379,0.039l0.168,0.005
			l0.61,0.008l0.646,0.012c6.934,0.117,16.086,0.266,19.568,0.266"/>
		<path fill="none" stroke="#CCCCCC" stroke-width="0.5" d="M249.061,236.135c1.919,0.023,4.147,0.038,6.724,0.038
			c3.433,0,8.418,0.065,14.282,0.157"/>
		<path fill="none" stroke="#CCCCCC" stroke-width="0.5" d="M221.058,232.122c8.14,1.773,15.267,3.295,17.147,3.635
			c0.29,0.029,1.25,0.111,3.285,0.195"/>
		<path fill="none" stroke="#CCCCCC" stroke-width="0.5" d="M194.202,226.136c4,0.938,11.924,2.71,19.99,4.482"/>
		<path fill="none" stroke="#CCCCCC" stroke-width="0.5" d="M163.526,222.013c5.188,0.137,9.019,0.231,9.548,0.231h0.161h0.167
			h0.163h0.18h0.174h0.179h0.178h0.155h0.148h0.154h0.164h0.169l0.167,0.02l0.162,0.016l0.14,0.016l0.047,0.002l0.037,0.002
			l0.106,0.012l0.06,0.008l0.094,0.006l0.433,0.044l0.039,0.001l0.085,0.012l0.085,0.012l0.054,0.001l0.235,0.026l0.216,0.02
			c2.497,0.245,6.261,0.837,10.229,1.799"/>
		<path fill="none" stroke="#CCCCCC" stroke-width="0.5" d="M129.712,221.007c1.86,0.11,14.922,0.492,26.239,0.803"/>
		<path fill="none" stroke="#CCCCCC" stroke-width="0.5" d="M138.323,388.534c-10.516-0.629-18.886-1.202-21.068-1.541
			c-1.899-0.29-4.025-0.792-6.237-1.425"/>
		<path fill="none" stroke="#CCCCCC" stroke-width="0.5" d="M170.842,390.335c-7.927-0.416-16.757-0.892-24.947-1.359"/>
		<path fill="none" stroke="#CCCCCC" stroke-width="0.5" d="M207.246,391.848c-5.403-0.117-9.422-0.21-11.467-0.276
			c-1.056-0.034-8.205-0.377-17.807-0.868"/>
		<path fill="none" stroke="#CCCCCC" stroke-width="0.5" d="M249.249,393.122c-3.273-0.131-5.688-0.246-6.9-0.34
			c-1.786-0.138-11.338-0.4-28.41-0.781"/>
		<path fill="none" stroke="#CCCCCC" stroke-width="0.5" d="M278.846,394.14c-8.333-0.271-16.412-0.533-22.912-0.767"/>
		<path fill="none" stroke="#CCCCCC" stroke-width="0.5" d="M397.603,403.2c-6.292-0.243-12.5-0.48-18.328-0.704"/>
		<path fill="none" stroke="#CCCCCC" stroke-width="0.5" d="M497.026,267.858c2.72,2.076,5.587,4.43,8.704,7.078"/>
		<path fill="none" stroke="#CCCCCC" stroke-width="0.5" d="M468.438,255.415c3.723,0.372,7.098,1.071,10.319,2.13"/>
		<path fill="none" stroke="#CCCCCC" stroke-width="0.5" d="M434.559,243.667c6.082,4.01,12.285,8.09,16.672,10.963
			c1.861,0.086,4.382,0.193,7.538,0.313"/>
		<path fill="none" stroke="#CCCCCC" stroke-width="0.5" d="M275.222,239.678c0.868,0.014,1.748,0.03,2.64,0.044l0.17,0.003
			l0.614,0.012l0.641,0.011c6.982,0.117,19.335,0.293,19.335,0.293"/>
		<path fill="none" stroke="#CCCCCC" stroke-width="0.5" d="M248.745,239.396c1.997,0.025,4.328,0.042,7.04,0.042
			c3.361,0,8.205,0.062,13.901,0.151"/>
		<path fill="none" stroke="#CCCCCC" stroke-width="0.5" d="M220.987,235.449c8.084,1.76,15.062,3.245,16.763,3.542
			c0.247,0.029,1.227,0.122,3.483,0.218"/>
		<path fill="none" stroke="#CCCCCC" stroke-width="0.5" d="M194.008,229.442c4.292,1.001,12.105,2.746,19.978,4.476"/>
		<path fill="none" stroke="#CCCCCC" stroke-width="0.5" d="M163.39,225.275c5.259,0.139,9.149,0.236,9.684,0.236h0.161h0.167h0.163
			h0.18h0.174h0.179h0.178h0.154h0.149h0.154h0.164l0.159,0.017l0.156,0.016l0.098,0.009l0.033,0.002l0.034,0.003l0.142,0.016
			l0.106,0.005l0.366,0.038l0.046,0.005l0.124,0.016l0.016,0.001l0.009,0.003l0.062,0.004l0.234,0.022l0.196,0.021
			c2.498,0.246,6.302,0.852,10.267,1.839"/>
		<path fill="none" stroke="#CCCCCC" stroke-width="0.5" d="M128.966,224.234c0.183,0.009,0.364,0.02,0.544,0.03
			c1.855,0.111,14.809,0.49,26.124,0.801"/>
		<path fill="none" stroke="#CCCCCC" stroke-width="0.5" d="M138.768,385.294c-10.511-0.624-18.875-1.194-21.016-1.525
			c-1.857-0.286-3.959-0.789-6.154-1.426"/>
		<path fill="none" stroke="#CCCCCC" stroke-width="0.5" d="M171.163,387.083c-7.902-0.414-16.713-0.887-24.883-1.351"/>
		<path fill="none" stroke="#CCCCCC" stroke-width="0.5" d="M207.438,388.586c-4.959-0.107-9.407-0.208-11.556-0.278
			c-1.051-0.034-8.136-0.374-17.655-0.859"/>
		<path fill="none" stroke="#CCCCCC" stroke-width="0.5" d="M249.566,389.866c-3.319-0.132-5.762-0.247-6.967-0.341
			c-2.592-0.198-19.592-0.59-28.481-0.788"/>
		<path fill="none" stroke="#CCCCCC" stroke-width="0.5" d="M279.353,390.886c-8.374-0.271-16.496-0.534-23.036-0.768"/>
		<path fill="none" stroke="#CCCCCC" stroke-width="0.5" d="M397.73,399.937c-8.019-0.309-15.903-0.612-23.039-0.888"/>
		<path fill="none" stroke="#CCCCCC" stroke-width="0.5" d="M492.903,268.838c3.684,2.684,7.648,5.947,12.222,9.872"/>
		<path fill="none" stroke="#CCCCCC" stroke-width="0.5" d="M466.282,258.512c4.446,0.301,8.334,1.043,12.038,2.316"/>
		<path fill="none" stroke="#CCCCCC" stroke-width="0.5" d="M432.652,246.322c6.633,4.374,13.354,8.793,17.534,11.528
			c1.64,0.079,3.763,0.173,6.352,0.275"/>
		<path fill="none" stroke="#CCCCCC" stroke-width="0.5" d="M274.903,242.94c0.947,0.016,1.915,0.033,2.904,0.049l0.173,0.003
			l0.613,0.01l0.637,0.01c6.97,0.118,18.994,0.225,19.168,0.212"/>
		<path fill="none" stroke="#CCCCCC" stroke-width="0.5" d="M248.489,242.66c2.063,0.029,4.478,0.045,7.296,0.045
			c3.277,0,7.891,0.056,13.518,0.144"/>
		<path fill="none" stroke="#CCCCCC" stroke-width="0.5" d="M220.875,238.762c8.061,1.752,14.924,3.211,16.424,3.463
			c0.173,0.021,1.195,0.134,3.808,0.245"/>
		<path fill="none" stroke="#CCCCCC" stroke-width="0.5" d="M193.805,232.747c4.531,1.049,12.343,2.79,20.127,4.5"/>
		<path fill="none" stroke="#CCCCCC" stroke-width="0.5" d="M163.34,228.539c5.284,0.14,9.195,0.237,9.734,0.237h0.161h0.167h0.163
			h0.181h0.173h0.179h0.178h0.154h0.149h0.154l0.151,0.015l0.149,0.014l0.17,0.018l0.154,0.015l0.301,0.03l0.039,0.004l0.04,0.005
			l0.117,0.014l0.067,0.007l0.234,0.023l0.166,0.018c2.507,0.244,6.356,0.863,10.309,1.878"/>
		<path fill="none" stroke="#CCCCCC" stroke-width="0.5" d="M128.143,227.471c0.396,0.012,0.788,0.031,1.167,0.053
			c1.847,0.11,14.694,0.487,26.006,0.797"/>
		<path fill="none" stroke="#CCCCCC" stroke-width="0.5" d="M139.161,382.043c-10.531-0.625-18.883-1.188-20.911-1.501
			c-1.813-0.277-3.874-0.778-6.026-1.412"/>
		<path fill="none" stroke="#CCCCCC" stroke-width="0.5" d="M171.475,383.823c-7.856-0.41-16.619-0.882-24.75-1.343"/>
		<path fill="none" stroke="#CCCCCC" stroke-width="0.5" d="M207.756,385.326c-4.882-0.107-9.573-0.212-11.767-0.282
			c-1.135-0.037-8.129-0.376-17.505-0.858"/>
		<path fill="none" stroke="#CCCCCC" stroke-width="0.5" d="M249.878,386.611c-3.366-0.133-5.835-0.248-7.031-0.339
			c-2.668-0.206-19.273-0.591-28.472-0.794"/>
		<path fill="none" stroke="#CCCCCC" stroke-width="0.5" d="M279.899,387.636c-8.416-0.273-16.604-0.538-23.199-0.771"/>
		<path fill="none" stroke="#CCCCCC" stroke-width="0.5" d="M287.706,393.568c0.031-0.364,0.063-0.731,0.095-1.106l0.115-1.273
			l0.015-0.251l0.049-0.551"/>
		<path fill="none" stroke="#CCCCCC" stroke-width="0.5" d="M397.858,396.675c-8.091-0.309-16.043-0.615-23.229-0.896"/>
		<path fill="none" stroke="#CCCCCC" stroke-width="0.5" d="M488.686,269.834c4.216,2.87,8.798,6.61,14.369,11.397"/>
		<path fill="none" stroke="#CCCCCC" stroke-width="0.5" d="M464.047,261.662c5.256,0.189,9.635,0.941,13.815,2.448"/>
		<path fill="none" stroke="#CCCCCC" stroke-width="0.5" d="M430.604,248.881c7.161,4.723,14.442,9.512,18.54,12.188
			c1.264,0.061,2.998,0.142,5.165,0.232"/>
		<path fill="none" stroke="#CCCCCC" stroke-width="0.5" d="M274.585,246.199c1.037,0.019,2.094,0.036,3.167,0.055l0.175,0.002
			l0.616,0.009l0.629,0.01c7.351,0.127,18.973,0.228,19.091,0.226"/>
		<path fill="none" stroke="#CCCCCC" stroke-width="0.5" d="M248.232,245.919c2.128,0.032,4.627,0.051,7.552,0.051
			c3.222,0,7.809,0.057,13.2,0.141"/>
		<path fill="none" stroke="#CCCCCC" stroke-width="0.5" d="M220.683,242.066c8.037,1.743,14.806,3.179,16.179,3.396
			c0.044,0.006,1.053,0.138,4.054,0.265"/>
		<path fill="none" stroke="#CCCCCC" stroke-width="0.5" d="M193.612,236.054c4.728,1.09,12.433,2.808,20.054,4.48"/>
		<path fill="none" stroke="#CCCCCC" stroke-width="0.5" d="M163.206,231.802c5.352,0.142,9.32,0.24,9.864,0.24h0.164h0.167h0.163
			h0.181h0.175h0.181h0.174h0.154h0.149l0.147,0.013l0.153,0.015l0.186,0.018l0.26,0.026l0.163,0.021l0.14,0.013l0.184,0.018
			l0.155,0.017c2.555,0.25,6.465,0.887,10.415,1.94"/>
		<path fill="none" stroke="#CCCCCC" stroke-width="0.5" d="M127.251,230.717c0.641,0.008,1.264,0.029,1.861,0.066
			c1.842,0.11,14.582,0.485,25.886,0.796"/>
		<path fill="none" stroke="#CCCCCC" stroke-width="0.5" d="M139.596,378.798c-10.549-0.623-18.903-1.181-20.849-1.481
			c-1.768-0.272-3.812-0.779-5.958-1.422"/>
		<path fill="none" stroke="#CCCCCC" stroke-width="0.5" d="M171.73,380.567c-7.814-0.407-16.534-0.877-24.623-1.337"/>
		<path fill="none" stroke="#CCCCCC" stroke-width="0.5" d="M207.942,382.068c-4.991-0.111-9.687-0.22-11.851-0.287
			c-1.11-0.037-8.016-0.372-17.293-0.848"/>
		<path fill="none" stroke="#CCCCCC" stroke-width="0.5" d="M250.14,383.354c-3.394-0.133-5.872-0.249-7.045-0.339
			c-2.727-0.209-18.989-0.586-28.536-0.798"/>
		<path fill="none" stroke="#CCCCCC" stroke-width="0.5" d="M280.299,384.382l-0.295-0.01c-8.306-0.27-16.388-0.53-22.923-0.762"/>
		<path fill="none" stroke="#CCCCCC" stroke-width="0.5" d="M290.978,393.634c0.025-0.296,0.05-0.594,0.077-0.896l0.113-1.258
			l0.02-0.307l0.092-1.062l0.04-0.438l0.246-2.853l0.179-2.067c-1.013-0.033-2.026-0.065-3.039-0.099"/>
		<path fill="none" stroke="#CCCCCC" stroke-width="0.5" d="M397.985,393.412c-8.163-0.312-16.183-0.619-23.419-0.899"/>
		<path fill="none" stroke="#CCCCCC" stroke-width="0.5" d="M484.314,270.873c4.745,2.909,9.904,7.062,16.636,12.853"/>
		<path fill="none" stroke="#CCCCCC" stroke-width="0.5" d="M461.885,264.857c0.611,0.021,1.239,0.042,1.884,0.063
			c5.214,0.175,9.47,0.906,13.591,2.475"/>
		<path fill="none" stroke="#CCCCCC" stroke-width="0.5" d="M428.619,251.484c7.751,5.112,15.65,10.303,19.484,12.802
			c1.041,0.052,2.392,0.115,4.039,0.189"/>
		<path fill="none" stroke="#CCCCCC" stroke-width="0.5" d="M274.262,249.46c1.123,0.019,2.269,0.037,3.433,0.057l0.184,0.005
			l0.611,0.01l0.625,0.011c7.366,0.125,18.58,0.238,18.855,0.232"/>
		<path fill="none" stroke="#CCCCCC" stroke-width="0.5" d="M247.917,249.183c2.208,0.033,4.81,0.054,7.868,0.054
			c3.128,0,7.553,0.052,12.755,0.132"/>
		<path fill="none" stroke="#CCCCCC" stroke-width="0.5" d="M220.619,245.388c7.844,1.702,14.38,3.084,15.731,3.299
			c0.062,0.009,1.114,0.158,4.308,0.298"/>
		<path fill="none" stroke="#CCCCCC" stroke-width="0.5" d="M193.432,239.362c4.892,1.123,12.533,2.824,20.038,4.468"/>
		<path fill="none" stroke="#CCCCCC" stroke-width="0.5" d="M163.083,235.063c5.416,0.144,9.438,0.243,9.987,0.243h0.164h0.167
			h0.161h0.183h0.175h0.181h0.175h0.153l0.153,0.014l0.177,0.02l0.226,0.022l0.158,0.018l0.178,0.02l0.141,0.015l0.157,0.017
			l0.063,0.007c2.544,0.248,6.513,0.905,10.444,1.999"/>
		<path fill="none" stroke="#CCCCCC" stroke-width="0.5" d="M126.426,233.982c0.106-0.001,0.212-0.002,0.319-0.002
			c0.749,0,1.478,0.021,2.17,0.062c1.839,0.11,14.517,0.482,25.829,0.793"/>
		<path fill="none" stroke="#CCCCCC" stroke-width="0.5" d="M140.102,375.553c-10.604-0.623-18.996-1.18-20.857-1.464
			c-1.687-0.26-3.695-0.769-5.821-1.418"/>
		<path fill="none" stroke="#CCCCCC" stroke-width="0.5" d="M171.991,377.311c-7.777-0.408-16.454-0.877-24.506-1.333"/>
		<path fill="none" stroke="#CCCCCC" stroke-width="0.5" d="M208.328,378.811c-5.042-0.109-9.934-0.221-12.135-0.295
			c-1.085-0.033-7.931-0.367-17.137-0.839"/>
		<path fill="none" stroke="#CCCCCC" stroke-width="0.5" d="M250.525,380.101c-3.486-0.137-6.018-0.254-7.179-0.342
			c-2.777-0.214-18.605-0.58-28.526-0.799"/>
		<path fill="none" stroke="#CCCCCC" stroke-width="0.5" d="M280.756,381.129l-0.653-0.019c-8.192-0.268-16.166-0.526-22.637-0.754"
			/>
		<path fill="none" stroke="#CCCCCC" stroke-width="0.5" d="M294.25,393.695c0.019-0.223,0.038-0.449,0.058-0.676l0.11-1.25
			l0.027-0.353l0.089-1.02l0.041-0.425l0.245-2.877l0.229-2.646l0.247-2.845c-2.004-0.063-4.043-0.131-6.074-0.196"/>
		<path fill="none" stroke="#CCCCCC" stroke-width="0.5" d="M398.114,390.151c-8.235-0.315-16.325-0.629-23.611-0.91"/>
		<path fill="none" stroke="#CCCCCC" stroke-width="0.5" d="M481.681,273.089c4.784,2.784,10.018,6.981,17.189,13.155"/>
		<path fill="none" stroke="#CCCCCC" stroke-width="0.5" d="M459.594,268.043c1.274,0.047,2.631,0.095,4.066,0.141
			c4.417,0.148,8.07,0.706,11.591,1.916"/>
		<path fill="none" stroke="#CCCCCC" stroke-width="0.5" d="M426.663,254.105c8.392,5.533,16.964,11.168,20.395,13.396
			c0.729,0.037,1.687,0.084,2.862,0.14"/>
		<path fill="none" stroke="#CCCCCC" stroke-width="0.5" d="M273.889,252.72c1.225,0.021,2.477,0.042,3.752,0.063l0.189,0.002
			l0.607,0.009l0.619,0.012c7.387,0.124,18.613,0.268,18.613,0.268"/>
		<path fill="none" stroke="#CCCCCC" stroke-width="0.5" d="M247.661,252.442c2.275,0.035,4.961,0.058,8.124,0.058
			c3.062,0,7.372,0.051,12.438,0.129"/>
		<path fill="none" stroke="#CCCCCC" stroke-width="0.5" d="M220.442,248.689c7.696,1.668,14.057,3.011,15.396,3.223
			c0.08,0.011,1.197,0.177,4.639,0.329"/>
		<path fill="none" stroke="#CCCCCC" stroke-width="0.5" d="M193.247,242.669c5.061,1.156,12.688,2.852,20.112,4.478"/>
		<path fill="none" stroke="#CCCCCC" stroke-width="0.5" d="M163.014,238.325c5.454,0.145,9.504,0.245,10.057,0.245h0.162h0.17
			h0.161h0.182h0.176h0.181h0.175l0.174,0.018l0.179,0.021l0.183,0.021l0.178,0.019l0.136,0.014l0.14,0.015l0.104,0.011
			c2.517,0.247,6.487,0.911,10.359,2.028"/>
		<path fill="none" stroke="#CCCCCC" stroke-width="0.5" d="M125.6,237.263c0.38-0.011,0.761-0.018,1.145-0.018
			c0.688,0,1.351,0.02,1.975,0.056c1.833,0.111,14.357,0.479,25.641,0.79"/>
		<path fill="none" stroke="#CCCCCC" stroke-width="0.5" d="M140.425,372.3c-10.59-0.621-18.937-1.17-20.68-1.438
			c-1.631-0.25-3.614-0.763-5.726-1.419"/>
		<path fill="none" stroke="#CCCCCC" stroke-width="0.5" d="M172.309,374.055c-7.751-0.407-16.408-0.873-24.438-1.328"/>
		<path fill="none" stroke="#CCCCCC" stroke-width="0.5" d="M208.583,375.552c-5.313-0.118-10.133-0.229-12.288-0.297
			c-1.162-0.038-7.892-0.368-16.926-0.833"/>
		<path fill="none" stroke="#CCCCCC" stroke-width="0.5" d="M250.9,376.849c-3.575-0.14-6.16-0.258-7.307-0.345
			c-2.795-0.214-17.848-0.568-28.515-0.808"/>
		<path fill="none" stroke="#CCCCCC" stroke-width="0.5" d="M281.265,377.879l-1.061-0.033c-8.081-0.261-15.951-0.519-22.36-0.742"
			/>
		<path fill="none" stroke="#CCCCCC" stroke-width="0.5" d="M297.518,393.823c0.015-0.174,0.03-0.349,0.045-0.524l0.107-1.241
			l0.029-0.374l0.09-1.003l0.037-0.416l0.248-2.889c0.271-3.152,0.53-6.141,0.77-8.916c-2.928-0.098-5.998-0.2-9.053-0.302"/>
		<path fill="none" stroke="#CCCCCC" stroke-width="0.5" d="M398.304,386.891c-8.376-0.321-16.606-0.638-23.992-0.925"/>
		<path fill="none" stroke="#CCCCCC" stroke-width="0.5" d="M479.823,275.776c4.597,2.631,9.699,6.722,16.939,12.96"/>
		<path fill="none" stroke="#CCCCCC" stroke-width="0.5" d="M457.364,271.227c1.866,0.071,3.931,0.146,6.188,0.222
			c3.656,0.122,6.726,0.531,9.67,1.425"/>
		<path fill="none" stroke="#CCCCCC" stroke-width="0.5" d="M424.613,256.667c9.099,6,18.472,12.158,21.398,14.048
			c0.429,0.021,0.99,0.052,1.681,0.087"/>
		<path fill="none" stroke="#CCCCCC" stroke-width="0.5" d="M273.631,255.969c1.514,0.025,3.074,0.052,4.669,0.079l0.203,0.002
			l0.598,0.012l0.611,0.008c7.405,0.128,17.53,0.25,17.67,0.25"/>
		<path fill="none" stroke="#CCCCCC" stroke-width="0.5" d="M247.4,255.691c2.489,0.046,5.491,0.075,9.101,0.075
			c2.835,0,6.746,0.044,11.338,0.11"/>
		<path fill="none" stroke="#CCCCCC" stroke-width="0.5" d="M220.37,251.857c7.819,1.693,14.305,3.062,15.674,3.278
			c0.2,0.031,1.287,0.184,4.234,0.331"/>
		<path fill="none" stroke="#CCCCCC" stroke-width="0.5" d="M193.049,245.809c5.035,1.152,12.658,2.846,20.11,4.477"/>
		<path fill="none" stroke="#CCCCCC" stroke-width="0.5" d="M162.891,241.568c5.878,0.157,10.319,0.266,10.899,0.266h0.162h0.167
			h0.161h0.182h0.177h0.18l0.178,0.02l0.175,0.021l0.175,0.018l0.161,0.017l0.125,0.014l0.147,0.013
			c2.364,0.232,6.083,0.856,9.721,1.905"/>
		<path fill="none" stroke="#CCCCCC" stroke-width="0.5" d="M124.646,240.634c0.927-0.082,1.866-0.125,2.817-0.125
			c0.609,0,1.207,0.016,1.772,0.05c1.798,0.106,13.728,0.459,24.798,0.767"/>
		<path fill="none" stroke="#CCCCCC" stroke-width="0.5" d="M140.869,369.011c-10.274-0.602-18.293-1.126-19.912-1.376
			c-1.745-0.269-3.969-0.876-6.327-1.648"/>
		<path fill="none" stroke="#CCCCCC" stroke-width="0.5" d="M172.625,370.762c-7.792-0.41-16.453-0.879-24.434-1.329"/>
		<path fill="none" stroke="#CCCCCC" stroke-width="0.5" d="M208.902,372.273c-5.02-0.108-9.707-0.216-11.79-0.281
			c-1.153-0.037-8.122-0.381-17.421-0.861"/>
		<path fill="none" stroke="#CCCCCC" stroke-width="0.5" d="M251.162,373.562c-3.231-0.127-5.558-0.234-6.604-0.312
			c-2.92-0.225-18.154-0.583-29.292-0.83"/>
		<path fill="none" stroke="#CCCCCC" stroke-width="0.5" d="M281.71,374.605l-0.686-0.022c-8.273-0.271-16.324-0.532-22.798-0.759"
			/>
		<path fill="none" stroke="#CCCCCC" stroke-width="0.5" d="M301.504,393.887c0.009-0.104,0.019-0.208,0.026-0.307l0.111-1.236
			l0.029-0.393l0.088-0.988l0.033-0.413c0.484-5.604,0.93-10.78,1.32-15.236c-4.004-0.139-8.428-0.287-12.81-0.431"/>
		<path fill="none" stroke="#CCCCCC" stroke-width="0.5" d="M398.432,383.6c-8.449-0.324-16.729-0.644-24.12-0.93"/>
		<path fill="none" stroke="#CCCCCC" stroke-width="0.5" d="M478.123,278.161c4.467,2.399,9.443,6.349,16.863,12.731"/>
		<path fill="none" stroke="#CCCCCC" stroke-width="0.5" d="M455.138,274.377c2.618,0.106,5.646,0.222,9.022,0.336
			c2.604,0.086,4.87,0.323,7.02,0.81"/>
		<path fill="none" stroke="#CCCCCC" stroke-width="0.5" d="M422.967,258.992c10.073,6.645,20.923,13.798,22.683,14.91"/>
		<path fill="none" stroke="#CCCCCC" stroke-width="0.5" d="M273.312,259.237c1.371,0.023,2.78,0.047,4.217,0.072l0.213,0.006
			l0.587,0.009l0.606,0.011c7.424,0.126,14.689,0.263,18.239,0.263"/>
		<path fill="none" stroke="#CCCCCC" stroke-width="0.5" d="M247.152,258.965c2.41,0.041,5.261,0.066,8.632,0.066
			c2.9,0,6.933,0.045,11.672,0.116"/>
		<path fill="none" stroke="#CCCCCC" stroke-width="0.5" d="M220.238,255.319c7.321,1.581,13.261,2.832,14.581,3.042
			c0.375,0.058,1.763,0.242,5.331,0.401"/>
		<path fill="none" stroke="#CCCCCC" stroke-width="0.5" d="M192.854,249.272c5.336,1.214,12.917,2.895,20.185,4.481"/>
		<path fill="none" stroke="#CCCCCC" stroke-width="0.5" d="M162.76,244.848c5.587,0.147,9.752,0.25,10.313,0.25h0.158h0.17h0.163
			h0.181h0.175l0.177,0.021l0.179,0.02l0.17,0.018l0.113,0.012l0.181,0.018c2.507,0.245,6.624,0.958,10.419,2.181"/>
		<path fill="none" stroke="#CCCCCC" stroke-width="0.5" d="M123.829,243.922c0.958-0.1,1.93-0.149,2.916-0.149
			c0.543,0,1.074,0.017,1.579,0.046c1.831,0.11,14.145,0.471,25.401,0.785"/>
		<path fill="none" stroke="#CCCCCC" stroke-width="0.5" d="M141.25,365.804c-10.617-0.616-18.952-1.153-20.511-1.393
			c-1.507-0.234-3.458-0.763-5.562-1.446"/>
		<path fill="none" stroke="#CCCCCC" stroke-width="0.5" d="M172.881,367.544c-7.688-0.405-16.281-0.869-24.251-1.317"/>
		<path fill="none" stroke="#CCCCCC" stroke-width="0.5" d="M209.094,369.028c-5.482-0.12-10.461-0.232-12.594-0.3
			c-1.211-0.04-7.764-0.361-16.556-0.816"/>
		<path fill="none" stroke="#CCCCCC" stroke-width="0.5" d="M251.544,370.34c-3.697-0.143-6.347-0.26-7.454-0.346
			c-2.93-0.227-17.11-0.562-28.569-0.819"/>
		<path fill="none" stroke="#CCCCCC" stroke-width="0.5" d="M282.22,371.375c-0.064-0.004-0.13-0.005-0.194-0.006l-1.61-0.049
			c-7.861-0.258-15.521-0.508-21.807-0.726"/>
		<path fill="none" stroke="#CCCCCC" stroke-width="0.5" d="M304.069,393.86l0.107-1.236l0.033-0.406l0.085-0.972l0.036-0.414
			c0.61-7.106,1.167-13.522,1.623-18.661c-4.555-0.162-10.026-0.346-15.142-0.514"/>
		<path fill="none" stroke="#CCCCCC" stroke-width="0.5" d="M398.621,380.366c-8.542-0.327-16.933-0.649-24.436-0.94"/>
		<path fill="none" stroke="#CCCCCC" stroke-width="0.5" d="M476.08,281.151c4.209,2.291,9.027,6.148,16.468,12.568"/>
		<path fill="none" stroke="#CCCCCC" stroke-width="0.5" d="M452.906,277.582c2.906,0.124,6.411,0.26,10.429,0.394
			c2.063,0.067,3.889,0.234,5.615,0.567"/>
		<path fill="none" stroke="#CCCCCC" stroke-width="0.5" d="M420.669,261.886c10.162,6.704,20.744,13.651,22.521,14.773
			c0.082,0.054,0.171,0.104,0.26,0.148"/>
		<path fill="none" stroke="#CCCCCC" stroke-width="0.5" d="M272.993,262.501c1.488,0.024,2.989,0.05,4.481,0.075l0.227,0.003
			l0.576,0.011l0.599,0.009c7.443,0.127,14.48,0.244,18.05,0.244"/>
		<path fill="none" stroke="#CCCCCC" stroke-width="0.5" d="M246.897,262.222c2.476,0.044,5.412,0.071,8.887,0.071
			c2.839,0,6.841,0.046,11.29,0.113"/>
		<path fill="none" stroke="#CCCCCC" stroke-width="0.5" d="M220.102,258.626c7.146,1.543,12.897,2.753,14.209,2.96
			c0.543,0.085,2.042,0.271,5.522,0.43"/>
		<path fill="none" stroke="#CCCCCC" stroke-width="0.5" d="M192.741,252.594c5.443,1.233,12.939,2.893,20.088,4.452"/>
		<path fill="none" stroke="#CCCCCC" stroke-width="0.5" d="M162.635,248.11c5.652,0.152,9.87,0.255,10.435,0.255h0.164h0.167h0.163
			h0.181l0.178,0.018l0.163,0.02l0.131,0.015l0.187,0.017c2.533,0.252,6.771,1,10.49,2.289"/>
		<path fill="none" stroke="#CCCCCC" stroke-width="0.5" d="M122.929,247.333c1.24-0.194,2.515-0.293,3.816-0.293
			c0.462,0,0.925,0.012,1.38,0.039c1.829,0.108,14.041,0.47,25.284,0.78"/>
		<path fill="none" stroke="#CCCCCC" stroke-width="0.5" d="M141.761,362.562c-10.671-0.617-19.045-1.152-20.523-1.381
			c-1.444-0.224-3.372-0.76-5.458-1.447"/>
		<path fill="none" stroke="#CCCCCC" stroke-width="0.5" d="M173.135,364.285c-7.625-0.402-16.15-0.862-24.062-1.306"/>
		<path fill="none" stroke="#CCCCCC" stroke-width="0.5" d="M209.347,365.77c-5.047-0.11-10.53-0.236-12.746-0.305
			c-1.164-0.039-7.664-0.358-16.401-0.812"/>
		<path fill="none" stroke="#CCCCCC" stroke-width="0.5" d="M251.861,367.084c-3.749-0.144-6.428-0.262-7.522-0.346
			c-2.998-0.229-17.09-0.566-28.626-0.826"/>
		<path fill="none" stroke="#CCCCCC" stroke-width="0.5" d="M282.728,368.126c-0.768-0.024-1.506-0.047-2.209-0.07
			c-7.751-0.252-15.307-0.5-21.53-0.716"/>
		<path fill="none" stroke="#CCCCCC" stroke-width="0.5" d="M307.321,394.14l0.107-1.232l0.035-0.424l0.083-0.953l0.035-0.414
			c0.755-8.754,1.427-16.536,1.929-22.082c-4.966-0.186-11.787-0.417-18.191-0.628"/>
		<path fill="none" stroke="#CCCCCC" stroke-width="0.5" d="M398.749,377.104c-8.576-0.329-17.055-0.654-24.632-0.947"/>
		<path fill="none" stroke="#CCCCCC" stroke-width="0.5" d="M474.14,283.817c4.025,2.096,8.703,5.834,16.368,12.452"/>
		<path fill="none" stroke="#CCCCCC" stroke-width="0.5" d="M450.682,280.752c3.358,0.149,7.636,0.323,12.545,0.487
			c1.275,0.042,2.444,0.122,3.556,0.266"/>
		<path fill="none" stroke="#CCCCCC" stroke-width="0.5" d="M418.679,264.479c10.249,6.763,20.968,13.806,22.763,14.942"/>
		<path fill="none" stroke="#CCCCCC" stroke-width="0.5" d="M272.611,265.761c1.668,0.027,3.357,0.056,5.035,0.084l0.574,0.009
			l0.594,0.012c7.465,0.123,14.307,0.239,17.899,0.239"/>
		<path fill="none" stroke="#CCCCCC" stroke-width="0.5" d="M246.644,265.486c2.545,0.045,5.564,0.073,9.141,0.073
			c2.752,0,6.607,0.043,10.908,0.107"/>
		<path fill="none" stroke="#CCCCCC" stroke-width="0.5" d="M219.972,261.939c6.951,1.498,12.504,2.661,13.831,2.871
			c0.723,0.114,2.366,0.306,5.836,0.466"/>
		<path fill="none" stroke="#CCCCCC" stroke-width="0.5" d="M192.486,255.881c5.564,1.261,13.067,2.92,20.17,4.471"/>
		<path fill="none" stroke="#CCCCCC" stroke-width="0.5" d="M162.571,251.373c5.685,0.151,9.931,0.256,10.499,0.256h0.164h0.167
			h0.163l0.161,0.019l0.166,0.017l0.173,0.018c2.443,0.241,6.543,0.971,10.054,2.227c0.104,0.03,0.237,0.065,0.402,0.108"/>
		<path fill="none" stroke="#CCCCCC" stroke-width="0.5" d="M121.985,250.846c1.523-0.356,3.117-0.542,4.76-0.542
			c0.398,0,0.793,0.013,1.184,0.036c1.829,0.109,13.937,0.466,25.159,0.776"/>
		<path fill="none" stroke="#CCCCCC" stroke-width="0.5" d="M142.143,359.312c-10.66-0.612-19.009-1.141-20.409-1.357
			c-1.348-0.207-3.235-0.747-5.292-1.44"/>
		<path fill="none" stroke="#CCCCCC" stroke-width="0.5" d="M173.391,361.025c-7.601-0.399-16.105-0.858-23.993-1.301"/>
		<path fill="none" stroke="#CCCCCC" stroke-width="0.5" d="M209.665,362.509c-5.627-0.123-10.787-0.238-12.959-0.308
			c-1.113-0.035-7.531-0.354-16.188-0.803"/>
		<path fill="none" stroke="#CCCCCC" stroke-width="0.5" d="M252.183,363.828c-3.806-0.145-6.516-0.264-7.595-0.345
			c-3.064-0.237-17.025-0.57-28.622-0.832"/>
		<path fill="none" stroke="#CCCCCC" stroke-width="0.5" d="M283.175,364.874c-0.873-0.028-1.726-0.056-2.549-0.082
			c-7.643-0.249-15.093-0.492-21.253-0.708"/>
		<path fill="none" stroke="#CCCCCC" stroke-width="0.5" d="M310.605,394.082c0.025-0.301,0.051-0.6,0.077-0.895l0.034-0.44
			l0.082-0.935c0.929-10.767,1.757-20.372,2.281-25.906c-4.772-0.196-13.108-0.48-21.249-0.748"/>
		<path fill="none" stroke="#CCCCCC" stroke-width="0.5" d="M398.876,373.842c-8.93-0.342-17.417-0.67-24.886-0.957"/>
		<path fill="none" stroke="#CCCCCC" stroke-width="0.5" d="M472.276,286.538c3.805,1.88,8.292,5.455,16.155,12.254"/>
		<path fill="none" stroke="#CCCCCC" stroke-width="0.5" d="M448.52,283.92c3.608,0.174,8.643,0.384,14.597,0.583
			c0.429,0.016,0.846,0.034,1.25,0.061"/>
		<path fill="none" stroke="#CCCCCC" stroke-width="0.5" d="M416.726,267.101c10.322,6.813,21.16,13.932,22.971,15.078"/>
		<path fill="none" stroke="#CCCCCC" stroke-width="0.5" d="M272.294,269.022c1.94,0.03,3.914,0.064,5.873,0.097l0.587,0.01
			c7.188,0.123,13.993,0.234,17.727,0.244"/>
		<path fill="none" stroke="#CCCCCC" stroke-width="0.5" d="M246.389,268.749c2.618,0.047,5.721,0.077,9.396,0.077
			c2.667,0,6.375,0.042,10.533,0.104"/>
		<path fill="none" stroke="#CCCCCC" stroke-width="0.5" d="M219.866,265.257c6.716,1.445,12.052,2.56,13.429,2.776
			c0.926,0.146,2.722,0.343,6.156,0.504"/>
		<path fill="none" stroke="#CCCCCC" stroke-width="0.5" d="M192.298,259.187c5.669,1.282,13.134,2.936,20.16,4.465"/>
		<path fill="none" stroke="#CCCCCC" stroke-width="0.5" d="M162.38,254.636c5.784,0.153,10.116,0.261,10.69,0.261h0.164h0.167
			l0.166,0.015l0.161,0.016c2.285,0.229,6.108,0.911,9.357,2.083c0.215,0.065,0.618,0.171,1.183,0.312"/>
		<path fill="none" stroke="#CCCCCC" stroke-width="0.5" d="M121.024,254.527c1.778-0.627,3.706-0.959,5.721-0.959
			c0.334,0,0.663,0.01,0.99,0.029c1.832,0.109,13.833,0.464,25.036,0.775"/>
		<path fill="none" stroke="#CCCCCC" stroke-width="0.5" d="M142.587,356.067c-10.699-0.614-19.066-1.14-20.359-1.338
			c-1.25-0.192-3.125-0.747-5.189-1.46"/>
		<path fill="none" stroke="#CCCCCC" stroke-width="0.5" d="M173.711,357.775c-7.56-0.4-16.019-0.857-23.87-1.297"/>
		<path fill="none" stroke="#CCCCCC" stroke-width="0.5" d="M209.983,359.251c-5.67-0.122-10.977-0.243-13.178-0.313
			c-1.213-0.039-7.537-0.353-16.035-0.794"/>
		<path fill="none" stroke="#CCCCCC" stroke-width="0.5" d="M252.498,360.575c-3.864-0.146-6.605-0.267-7.66-0.346
			c-3.144-0.242-16.665-0.568-28.619-0.838"/>
		<path fill="none" stroke="#CCCCCC" stroke-width="0.5" d="M283.68,361.624c-0.996-0.033-1.979-0.064-2.949-0.096
			c-7.534-0.246-14.881-0.485-20.978-0.694"/>
		<path fill="none" stroke="#CCCCCC" stroke-width="0.5" d="M313.881,394.087c0.017-0.208,0.035-0.415,0.052-0.62l0.038-0.442
			c1.2-13.917,2.252-26.11,2.698-30.215c-2.721-0.172-13.205-0.535-24.329-0.902"/>
		<path fill="none" stroke="#CCCCCC" stroke-width="0.5" d="M399.005,370.579c-8.888-0.342-17.481-0.674-25.075-0.968"/>
		<path fill="none" stroke="#CCCCCC" stroke-width="0.5" d="M470.394,289.268c3.559,1.622,7.796,4.979,15.893,11.982"/>
		<path fill="none" stroke="#CCCCCC" stroke-width="0.5" d="M446.224,287.079c3.469,0.179,9.012,0.424,15.85,0.657"/>
		<path fill="none" stroke="#CCCCCC" stroke-width="0.5" d="M414.687,269.665c10.144,6.697,20.843,13.727,23.095,15.169"/>
		<path fill="none" stroke="#CCCCCC" stroke-width="0.5" d="M271.977,272.282c2.022,0.033,4.086,0.066,6.132,0.102
			c7.297,0.124,14.208,0.241,18.119,0.254"/>
		<path fill="none" stroke="#CCCCCC" stroke-width="0.5" d="M246.073,272.01c2.715,0.051,5.922,0.08,9.712,0.08
			c2.572,0,6.163,0.04,10.209,0.1"/>
		<path fill="none" stroke="#CCCCCC" stroke-width="0.5" d="M219.723,268.568c6.51,1.397,11.655,2.469,13.064,2.691
			c1.15,0.182,3.117,0.38,6.473,0.537"/>
		<path fill="none" stroke="#CCCCCC" stroke-width="0.5" d="M192.158,262.494c5.783,1.311,13.222,2.959,20.171,4.473"/>
		<path fill="none" stroke="#CCCCCC" stroke-width="0.5" d="M162.317,257.896c5.817,0.155,10.178,0.265,10.753,0.265h0.162
			l0.162,0.017c2.293,0.228,5.848,0.91,8.629,1.919c0.253,0.083,0.919,0.256,1.917,0.499"/>
		<path fill="none" stroke="#CCCCCC" stroke-width="0.5" d="M122.173,257.593c1.42-0.495,2.959-0.758,4.572-0.758
			c0.271,0,0.54,0.009,0.807,0.022c1.831,0.107,13.723,0.459,24.9,0.771"/>
		<path fill="none" stroke="#CCCCCC" stroke-width="0.5" d="M142.971,352.815c-10.762-0.622-19.132-1.144-20.243-1.315
			c-1.138-0.174-3.016-0.746-5.108-1.481"/>
		<path fill="none" stroke="#CCCCCC" stroke-width="0.5" d="M173.965,354.525c-7.509-0.4-15.895-0.856-23.678-1.294"/>
		<path fill="none" stroke="#CCCCCC" stroke-width="0.5" d="M210.239,355.991c-6.007-0.135-11.177-0.249-13.329-0.317
			c-1.73-0.057-7.818-0.356-15.818-0.774"/>
		<path fill="none" stroke="#CCCCCC" stroke-width="0.5" d="M252.816,357.317c-3.918-0.145-6.688-0.264-7.727-0.345
			c-3.211-0.247-16.688-0.574-28.678-0.842"/>
		<path fill="none" stroke="#CCCCCC" stroke-width="0.5" d="M284.13,358.371c-1.098-0.034-2.197-0.07-3.293-0.107
			c-7.451-0.241-14.719-0.479-20.765-0.688"/>
		<path fill="none" stroke="#CCCCCC" stroke-width="0.5" d="M317.145,394.215c0.013-0.157,0.027-0.313,0.041-0.468
			c1.282-14.869,2.491-28.917,2.836-31.503c0.102-0.952,0.009-1.693-0.249-1.995c-0.112-0.132-0.616-0.574-2.333-0.657l-0.056-0.004
			l-0.051-0.004c-1.942-0.162-12.281-0.525-24.42-0.926"/>
		<path fill="none" stroke="#CCCCCC" stroke-width="0.5" d="M399.196,367.319c-8.479-0.324-17.332-0.666-25.33-0.976"/>
		<path fill="none" stroke="#CCCCCC" stroke-width="0.5" d="M468.479,292.011c3.305,1.312,7.229,4.393,15.735,11.761"/>
		<path fill="none" stroke="#CCCCCC" stroke-width="0.5" d="M444.063,290.229c2.825,0.161,8.365,0.427,15.527,0.685"/>
		<path fill="none" stroke="#CCCCCC" stroke-width="0.5" d="M412.782,272.318c10.011,6.61,20.577,13.556,23.109,15.183"/>
		<path fill="none" stroke="#CCCCCC" stroke-width="0.5" d="M367.613,312.557c1.679-15.925,3.319-32.754,3.319-34.371
			c0-3.047-2.613-4.569-5.005-4.136c-0.965,0.176-4.967,1.198-10.385,2.618"/>
		<path fill="none" stroke="#CCCCCC" stroke-width="0.5" d="M343.377,344.322c8.128,0.677,14.87,1.255,15.802,1.34
			c2.394,0.219,4.353-1.522,5.006-4.136c0.37-1.332,1.51-11.111,2.75-22.611"/>
		<path fill="none" stroke="#CCCCCC" stroke-width="0.5" d="M316.783,342.227c4.982,0.342,12.862,0.966,20.492,1.592"/>
		<path fill="none" stroke="#CCCCCC" stroke-width="0.5" d="M258.929,340.415c20.77,0.675,44.856,1.44,51.809,1.537"/>
		<path fill="none" stroke="#CCCCCC" stroke-width="0.5" d="M224.814,339.33c0.43,0.015,0.744,0.021,0.933,0.021
			c0.74,0,11.996,0.37,26.181,0.834"/>
		<path fill="none" stroke="#CCCCCC" stroke-width="0.5" d="M190.833,337.625c11.317,0.617,21.488,1.142,27.938,1.446"/>
		<path fill="none" stroke="#CCCCCC" stroke-width="0.5" d="M152.644,335.424c9.669,0.595,20.718,1.234,31.254,1.818"/>
		<path fill="none" stroke="#CCCCCC" stroke-width="0.5" d="M120.892,308.624c-1.33,7.564-2.525,14.237-2.893,15.708
			c-1.087,4.353,0.654,8.271,7.62,9.142c2.602,0.325,9.818,0.853,19.263,1.461"/>
		<path fill="none" stroke="#CCCCCC" stroke-width="0.5" d="M152.581,277.969c-10.705,0-20.112,0-21.302,0
			c-3.483,0-5.047,1.618-5.877,5.224c-0.303,1.309-1.717,9.443-3.238,18.162"/>
		<path fill="none" stroke="#CCCCCC" stroke-width="0.5" d="M190.266,278.477c-1.416-0.295-2.883-0.508-4.136-0.508
			c-1.444,0-14.985,0-28.264,0"/>
		<path fill="none" stroke="#CCCCCC" stroke-width="0.5" d="M222.398,287.596c-0.043-0.016-0.088-0.033-0.133-0.049
			c-3.275-1.228-22.895-6.495-26.866-7.668"/>
		<path fill="none" stroke="#CCCCCC" stroke-width="0.5" d="M256.633,289.31c-12.98,0.043-24.283,0.069-25.228-0.024
			c-0.99-0.099-2.248-0.197-3.654-0.398"/>
		<path fill="none" stroke="#CCCCCC" stroke-width="0.5" d="M273.821,289.248c-3.406,0.011-6.961,0.024-10.502,0.036"/>
		<path fill="none" stroke="#CCCCCC" stroke-width="0.5" d="M324.684,284.833c-6.579,1.732-11.509,3.015-12.305,3.147
			c-0.592,0.099-1.417,0.231-2.408,0.374"/>
		<path fill="none" stroke="#CCCCCC" stroke-width="0.5" d="M348.348,278.562c-5.935,1.568-12.54,3.326-18.46,4.896"/>
		<path fill="none" stroke="#CCCCCC" stroke-width="0.5" d="M329.574,286.915c2.499-0.662,5.298-1.403,8.409-2.229
			c3.016-0.801,6.218-1.65,9.348-2.48"/>
		<path fill="none" stroke="#CCCCCC" stroke-width="0.5" d="M309.717,291.718c1.297-0.179,2.398-0.36,3.198-0.517
			c0.83-0.162,4.482-1.074,11.491-2.919"/>
		<path fill="none" stroke="#CCCCCC" stroke-width="0.5" d="M263.064,292.553c3.559-0.013,7.136-0.026,10.565-0.036"/>
		<path fill="none" stroke="#CCCCCC" stroke-width="0.5" d="M227.62,292.166c1.038,0.141,1.979,0.23,2.779,0.306l0.683,0.064
			c0.313,0.031,0.789,0.077,8.079,0.077c4.517,0,10.582-0.019,17.094-0.041"/>
		<path fill="none" stroke="#CCCCCC" stroke-width="0.5" d="M195.137,283.204c1.399,0.401,3.756,1.054,7.082,1.972
			c6.698,1.85,16.823,4.647,18.899,5.427c0.365,0.136,0.728,0.264,1.089,0.38"/>
		<path fill="none" stroke="#CCCCCC" stroke-width="0.5" d="M157.609,281.231h28.521c1.02,0,2.351,0.197,3.721,0.493"/>
		<path fill="none" stroke="#CCCCCC" stroke-width="0.5" d="M125.402,301.734c1.598-9.005,3.06-17.281,3.179-17.807
			c0.624-2.696,1.274-2.696,2.698-2.696h20.857"/>
		<path fill="none" stroke="#CCCCCC" stroke-width="0.5" d="M145.334,331.686c-9.57-0.615-16.841-1.143-19.311-1.451
			c-2.301-0.288-3.936-0.987-4.608-1.969c-0.503-0.734-0.585-1.791-0.249-3.144c0.211-0.843,1.526-8.149,2.993-16.382"/>
		<path fill="none" stroke="#CCCCCC" stroke-width="0.5" d="M184.215,333.992c-10.513-0.587-21.542-1.227-31.188-1.822"/>
		<path fill="none" stroke="#CCCCCC" stroke-width="0.5" d="M218.958,335.822c-6.407-0.301-16.562-0.828-27.87-1.449"/>
		<path fill="none" stroke="#CCCCCC" stroke-width="0.5" d="M252.247,336.929c-2.051-0.066-4.045-0.13-5.96-0.192
			c-13.045-0.43-19.88-0.651-20.54-0.651c0,0-0.244-0.007-0.675-0.02"/>
		<path fill="none" stroke="#CCCCCC" stroke-width="0.5" d="M310.801,338.69c-6.819-0.095-30.746-0.855-51.617-1.534"/>
		<path fill="none" stroke="#CCCCCC" stroke-width="0.5" d="M337.467,340.559c-7.664-0.628-15.588-1.256-20.619-1.598"/>
		<path fill="none" stroke="#CCCCCC" stroke-width="0.5" d="M363.663,318.923c-1.174,10.939-2.248,20.196-2.629,21.753
			c-0.226,0.896-0.752,1.741-1.455,1.741l0,0c-0.034,0-0.069-0.003-0.106-0.004c-0.829-0.074-7.718-0.668-16.025-1.36"/>
		<path fill="none" stroke="#CCCCCC" stroke-width="0.5" d="M354.914,280.206c5.967-1.565,10.644-2.771,11.595-2.943
			c0.077-0.013,0.154-0.021,0.23-0.021c0.615,0,0.927,0.317,0.927,0.943c-0.016,1.56-1.658,18.45-3.321,34.309"/>
		<path fill="none" stroke="#CCCCCC" stroke-width="0.5" d="M329.248,290.379c2.731-0.724,5.9-1.563,9.572-2.539l0.34-0.089
			c2.209-0.587,4.657-1.235,7.159-1.897"/>
		<path fill="none" stroke="#CCCCCC" stroke-width="0.5" d="M309.589,294.999c1.521-0.201,2.846-0.407,3.864-0.58
			c0.875-0.144,3.714-0.856,10.721-2.701"/>
		<path fill="none" stroke="#CCCCCC" stroke-width="0.5" d="M262.694,295.816c3.614-0.012,7.254-0.024,10.746-0.035"/>
		<path fill="none" stroke="#CCCCCC" stroke-width="0.5" d="M227.424,295.434c0.992,0.128,1.892,0.213,2.667,0.286l0.677,0.066
			c0.458,0.045,0.942,0.094,8.392,0.094c4.457,0,10.424-0.018,16.839-0.038"/>
		<path fill="none" stroke="#CCCCCC" stroke-width="0.5" d="M194.901,286.53c1.369,0.389,3.425,0.957,6.446,1.792
			c5.83,1.612,16.675,4.609,18.627,5.337c0.663,0.248,1.321,0.467,1.968,0.658"/>
		<path fill="none" stroke="#CCCCCC" stroke-width="0.5" d="M157.292,284.498h28.838c0.799,0,2.045,0.191,3.422,0.505"/>
		<path fill="none" stroke="#CCCCCC" stroke-width="0.5" d="M128.69,301.876c1.56-8.794,2.964-16.735,3.074-17.216
			c0.013-0.054,0.025-0.109,0.04-0.162h19.886"/>
		<path fill="none" stroke="#CCCCCC" stroke-width="0.5" d="M145.776,328.446c-9.588-0.616-16.878-1.145-19.347-1.454
			c-1.154-0.145-1.848-0.386-2.191-0.553c0.013-0.125,0.039-0.3,0.097-0.527c0.229-0.911,1.613-8.605,3.126-17.11"/>
		<path fill="none" stroke="#CCCCCC" stroke-width="0.5" d="M184.587,330.745c-10.545-0.588-21.626-1.23-31.305-1.827"/>
		<path fill="none" stroke="#CCCCCC" stroke-width="0.5" d="M219.214,332.566c-6.344-0.296-16.519-0.822-27.872-1.444"/>
		<path fill="none" stroke="#CCCCCC" stroke-width="0.5" d="M252.503,333.671c-1.655-0.054-3.269-0.107-4.83-0.158l-1.28-0.041
			c-14.435-0.474-19.952-0.654-20.649-0.654c-0.133,0-0.315-0.002-0.546-0.008"/>
		<path fill="none" stroke="#CCCCCC" stroke-width="0.5" d="M310.8,335.424c-6.781-0.097-30.699-0.855-51.295-1.525"/>
		<path fill="none" stroke="#CCCCCC" stroke-width="0.5" d="M337.723,337.303c-7.745-0.635-15.777-1.271-20.874-1.613"/>
		<path fill="none" stroke="#CCCCCC" stroke-width="0.5" d="M360.392,318.854c-1,9.32-1.914,17.326-2.365,20.155l0,0
			c-2.669-0.231-8.124-0.697-14.389-1.218"/>
		<path fill="none" stroke="#CCCCCC" stroke-width="0.5" d="M354.179,283.777c3.981-1.047,7.586-1.988,9.994-2.598
			c-0.513,5.845-1.815,18.985-3.114,31.379"/>
		<path fill="none" stroke="#CCCCCC" stroke-width="0.5" d="M328.977,293.826c2.942-0.777,6.461-1.711,10.683-2.831l0.338-0.09
			c1.626-0.431,3.424-0.909,5.304-1.406"/>
		<path fill="none" stroke="#CCCCCC" stroke-width="0.5" d="M309.4,298.318c1.827-0.234,3.413-0.481,4.592-0.679
			c0.917-0.152,3.051-0.674,9.853-2.462"/>
		<path fill="none" stroke="#CCCCCC" stroke-width="0.5" d="M262.429,299.083h0.279c3.543-0.013,7.112-0.026,10.541-0.036"/>
		<path fill="none" stroke="#CCCCCC" stroke-width="0.5" d="M227.224,298.732c0.992,0.118,1.854,0.188,2.554,0.237l0.681,0.065
			c0.591,0.059,1.106,0.111,8.702,0.111c4.396,0,10.266-0.02,16.583-0.042"/>
		<path fill="none" stroke="#CCCCCC" stroke-width="0.5" d="M194.647,289.859c1.393,0.395,3.296,0.922,5.832,1.611
			c4.944,1.345,16.511,4.561,18.35,5.247c1.004,0.378,1.977,0.688,2.912,0.947"/>
		<path fill="none" stroke="#CCCCCC" stroke-width="0.5" d="M156.973,287.764h29.157c0.578,0,1.749,0.188,3.108,0.52"/>
		<path fill="none" stroke="#CCCCCC" stroke-width="0.5" d="M131.965,302.13c1.206-6.844,2.28-12.962,2.535-14.366h16.745"/>
		<path fill="none" stroke="#CCCCCC" stroke-width="0.5" d="M146.154,325.203c-8.278-0.533-14.845-0.998-18.064-1.312
			c0.337-1.744,1.458-8.063,2.677-14.961"/>
		<path fill="none" stroke="#CCCCCC" stroke-width="0.5" d="M184.978,327.503c-10.584-0.59-21.724-1.238-31.44-1.838"/>
		<path fill="none" stroke="#CCCCCC" stroke-width="0.5" d="M219.471,329.313c-6.268-0.293-16.438-0.82-27.811-1.442"/>
		<path fill="none" stroke="#CCCCCC" stroke-width="0.5" d="M252.82,330.415c-1.748-0.06-3.434-0.114-5.041-0.166l-1.279-0.039
			c-15.682-0.516-20.031-0.656-20.755-0.656c-0.079,0-0.176-0.001-0.292-0.004"/>
		<path fill="none" stroke="#CCCCCC" stroke-width="0.5" d="M310.864,332.16c-6.696-0.093-31.082-0.869-51.107-1.519"/>
		<path fill="none" stroke="#CCCCCC" stroke-width="0.5" d="M337.977,334.048c-7.851-0.644-15.926-1.282-21.067-1.625"/>
		<path fill="none" stroke="#CCCCCC" stroke-width="0.5" d="M357.1,318.926c-0.73,6.786-1.408,12.814-1.884,16.565l0,0
			c-3.071-0.261-7.091-0.603-11.449-0.965"/>
		<path fill="none" stroke="#CCCCCC" stroke-width="0.5" d="M353.554,287.317c2.472-0.651,4.855-1.276,6.943-1.818
			c-0.656,6.947-1.699,17.323-2.729,27.128"/>
		<path fill="none" stroke="#CCCCCC" stroke-width="0.5" d="M328.741,297.267c3.135-0.827,6.992-1.85,11.755-3.115l0.34-0.09
			l0.345-0.092c0.961-0.256,1.98-0.526,3.036-0.806"/>
		<path fill="none" stroke="#CCCCCC" stroke-width="0.5" d="M309.217,301.631c2.13-0.261,3.977-0.545,5.316-0.77
			c0.94-0.156,2.569-0.539,9.003-2.225"/>
		<path fill="none" stroke="#CCCCCC" stroke-width="0.5" d="M262.063,302.352l0.658-0.003c3.473-0.013,6.97-0.024,10.337-0.036"/>
		<path fill="none" stroke="#CCCCCC" stroke-width="0.5" d="M227.042,301.97c0.893,0.105,1.708,0.185,2.429,0.252l0.677,0.067
			c0.722,0.069,1.249,0.122,9.012,0.122c4.322,0,10.068-0.019,16.266-0.036"/>
		<path fill="none" stroke="#CCCCCC" stroke-width="0.5" d="M194.412,293.176c1.275,0.357,2.957,0.821,5.197,1.442l0.158,0.044
			c4.441,1.228,16.235,4.484,17.921,5.113c1.315,0.492,2.591,0.881,3.808,1.188"/>
		<path fill="none" stroke="#CCCCCC" stroke-width="0.5" d="M156.718,291.031h29.412c0.289,0.005,1.346,0.168,2.708,0.517"/>
		<path fill="none" stroke="#CCCCCC" stroke-width="0.5" d="M135.24,302.375c0.939-5.354,1.765-10.062,1.992-11.344h13.567"/>
		<path fill="none" stroke="#CCCCCC" stroke-width="0.5" d="M146.648,321.959c-6.003-0.385-11.107-0.734-14.685-1.016
			c0.334-1.828,1.195-6.705,2.13-12.022"/>
		<path fill="none" stroke="#CCCCCC" stroke-width="0.5" d="M185.36,324.254c-10.601-0.594-21.773-1.244-31.506-1.844"/>
		<path fill="none" stroke="#CCCCCC" stroke-width="0.5" d="M219.661,326.059c-6.223-0.287-16.41-0.819-27.813-1.444"/>
		<path fill="none" stroke="#CCCCCC" stroke-width="0.5" d="M253.075,327.156c-1.58-0.052-3.108-0.103-4.57-0.15l-0.619-0.018
			l-1.284-0.041c-16.389-0.541-20.094-0.656-20.858-0.656"/>
		<path fill="none" stroke="#CCCCCC" stroke-width="0.5" d="M310.928,328.893c-6.565-0.088-30.994-0.863-50.916-1.511"/>
		<path fill="none" stroke="#CCCCCC" stroke-width="0.5" d="M338.229,330.791c-8.123-0.668-16.188-1.303-21.316-1.64"/>
		<path fill="none" stroke="#CCCCCC" stroke-width="0.5" d="M353.825,318.859c-0.536,4.982-1.045,9.558-1.467,13.113l0,0
			c-2.658-0.227-5.549-0.471-8.525-0.72"/>
		<path fill="none" stroke="#CCCCCC" stroke-width="0.5" d="M352.852,290.88c1.34-0.354,2.667-0.704,3.948-1.042
			c-0.633,6.502-1.472,14.794-2.306,22.721"/>
		<path fill="none" stroke="#CCCCCC" stroke-width="0.5" d="M328.492,300.712c3.321-0.877,7.517-1.988,12.843-3.403l0.332-0.089
			l0.36-0.097c0.382-0.102,0.774-0.205,1.174-0.312"/>
		<path fill="none" stroke="#CCCCCC" stroke-width="0.5" d="M309.024,304.943c2.438-0.288,4.552-0.612,6.049-0.863
			c0.974-0.16,2.383-0.48,8.208-2.002"/>
		<path fill="none" stroke="#CCCCCC" stroke-width="0.5" d="M261.854,305.618l0.218-0.001l0.663-0.004
			c3.38-0.013,6.785-0.023,10.068-0.033"/>
		<path fill="none" stroke="#CCCCCC" stroke-width="0.5" d="M226.852,305.237c0.846,0.099,1.621,0.17,2.314,0.235l0.671,0.064
			c0.85,0.084,1.413,0.139,9.324,0.139c4.25,0,9.874-0.016,15.948-0.036"/>
		<path fill="none" stroke="#CCCCCC" stroke-width="0.5" d="M194.149,296.491c1.201,0.334,2.701,0.751,4.59,1.272l0.16,0.043
			l0.182,0.052c10.573,2.923,16.448,4.597,17.462,4.975c1.651,0.621,3.235,1.087,4.725,1.441"/>
		<path fill="none" stroke="#CCCCCC" stroke-width="0.5" d="M156.399,294.295h29.602c0.33,0.037,1.295,0.21,2.479,0.537"/>
		<path fill="none" stroke="#CCCCCC" stroke-width="0.5" d="M138.52,302.58c0.686-3.92,1.271-7.272,1.45-8.285h10.385"/>
		<path fill="none" stroke="#CCCCCC" stroke-width="0.5" d="M147.108,318.714c-4.302-0.274-8.143-0.53-11.289-0.757
			c0.293-1.645,0.902-5.105,1.566-8.901"/>
		<path fill="none" stroke="#CCCCCC" stroke-width="0.5" d="M185.679,320.998c-10.597-0.593-21.774-1.242-31.505-1.842"/>
		<path fill="none" stroke="#CCCCCC" stroke-width="0.5" d="M219.917,322.802c-6.142-0.284-16.323-0.814-27.749-1.443"/>
		<path fill="none" stroke="#CCCCCC" stroke-width="0.5" d="M253.457,323.901c-1.699-0.055-3.321-0.107-4.844-0.156l-0.62-0.021
			l-1.29-0.038c-10.368-0.345-16.784-0.541-20.927-0.676"/>
		<path fill="none" stroke="#CCCCCC" stroke-width="0.5" d="M310.929,325.629c-6.575-0.09-31.343-0.877-50.664-1.504"/>
		<path fill="none" stroke="#CCCCCC" stroke-width="0.5" d="M338.366,327.523c-8.367-0.684-16.294-1.306-21.364-1.636"/>
		<path fill="none" stroke="#CCCCCC" stroke-width="0.5" d="M350.54,318.86c-0.375,3.483-0.735,6.751-1.06,9.59l0,0
			c-1.82-0.154-3.67-0.309-5.527-0.465"/>
		<path fill="none" stroke="#CCCCCC" stroke-width="0.5" d="M352.31,294.398c0.259-0.067,0.52-0.137,0.78-0.205
			c-0.568,5.722-1.23,12.209-1.886,18.425"/>
		<path fill="none" stroke="#CCCCCC" stroke-width="0.5" d="M328.191,304.167c3.496-0.921,8.036-2.125,13.982-3.705"/>
		<path fill="none" stroke="#CCCCCC" stroke-width="0.5" d="M308.758,308.261c2.781-0.313,5.191-0.682,6.855-0.962
			c0.995-0.167,2.28-0.449,7.224-1.73"/>
		<path fill="none" stroke="#CCCCCC" stroke-width="0.5" d="M193.872,299.804c1.09,0.303,2.402,0.668,3.996,1.108l0.153,0.04
			l0.207,0.057c13.728,3.796,16.651,4.689,17.17,4.885c1.979,0.742,3.855,1.276,5.594,1.671"/>
		<path fill="none" stroke="#CCCCCC" stroke-width="0.5" d="M156.083,297.558h29.685c0.369,0.065,1.297,0.248,2.398,0.584"/>
		<path fill="none" stroke="#CCCCCC" stroke-width="0.5" d="M141.791,302.826c0.443-2.538,0.807-4.618,0.921-5.269h7.197"/>
		<path fill="none" stroke="#CCCCCC" stroke-width="0.5" d="M147.482,315.465c-2.83-0.181-5.458-0.353-7.815-0.511
			c0.213-1.201,0.591-3.358,1.011-5.76"/>
		<path fill="none" stroke="#CCCCCC" stroke-width="0.5" d="M185.993,317.743c-10.617-0.595-21.829-1.247-31.563-1.844"/>
		<path fill="none" stroke="#CCCCCC" stroke-width="0.5" d="M220.172,319.546c-6.063-0.28-16.271-0.814-27.748-1.447"/>
		<path fill="none" stroke="#CCCCCC" stroke-width="0.5" d="M253.72,320.645c-1.65-0.055-3.226-0.106-4.709-0.154l-0.29-0.008
			l-0.621-0.022l-1.299-0.038c-16.358-0.544-19.68-0.648-20.777-0.662"/>
		<path fill="none" stroke="#CCCCCC" stroke-width="0.5" d="M310.991,322.364c-6.437-0.085-31.198-0.875-50.472-1.499"/>
		<path fill="none" stroke="#CCCCCC" stroke-width="0.5" d="M338.55,324.265c-9.801-0.805-16.988-1.354-21.511-1.645"/>
		<path fill="none" stroke="#CCCCCC" stroke-width="0.5" d="M347.257,318.857c-0.228,2.105-0.451,4.147-0.666,6.073l0,0
			c-0.808-0.067-1.601-0.134-2.382-0.2"/>
		<path fill="none" stroke="#CCCCCC" stroke-width="0.5" d="M327.927,307.61c3.283-0.862,7.562-1.993,13.195-3.49"/>
		<path fill="none" stroke="#CCCCCC" stroke-width="0.5" d="M308.483,311.575c3.129-0.336,5.842-0.749,7.676-1.058
			c1.018-0.168,2.214-0.428,6.551-1.548"/>
		<path fill="none" stroke="#CCCCCC" stroke-width="0.5" d="M193.563,303.106c0.971,0.27,2.103,0.582,3.433,0.951l0.145,0.041
			l0.241,0.064c6.398,1.769,10.38,2.888,12.856,3.596"/>
		<path fill="none" stroke="#CCCCCC" stroke-width="0.5" d="M155.828,300.823h29.638c0.396,0.077,1.213,0.258,2.151,0.57
			c0.067,0.021,0.136,0.043,0.207,0.067"/>
		<polyline fill="none" stroke="#CCCCCC" stroke-width="0.5" points="145.064,303.071 145.456,300.823 149.464,300.823 		"/>
		<path fill="none" stroke="#CCCCCC" stroke-width="0.5" d="M148,312.229c-1.554-0.099-3.054-0.195-4.486-0.289
			c0.146-0.752,0.307-1.647,0.477-2.617"/>
		<path fill="none" stroke="#CCCCCC" stroke-width="0.5" d="M186.376,314.497c-10.588-0.592-21.813-1.243-31.634-1.847"/>
		<path fill="none" stroke="#CCCCCC" stroke-width="0.5" d="M220.426,316.292c-5.978-0.277-16.199-0.809-27.748-1.446"/>
		<path fill="none" stroke="#CCCCCC" stroke-width="0.5" d="M254.028,317.388c-1.75-0.059-3.397-0.112-4.912-0.16l-0.288-0.01
			l-0.62-0.021l-1.307-0.04c-15.97-0.527-19.519-0.639-20.75-0.661"/>
		<path fill="none" stroke="#CCCCCC" stroke-width="0.5" d="M311.054,319.103c-6.319-0.085-31.435-0.883-50.216-1.494"/>
		<path fill="none" stroke="#CCCCCC" stroke-width="0.5" d="M338.802,321.008c-10.009-0.819-17.226-1.371-21.762-1.658"/>
		<path fill="none" stroke="#CCCCCC" stroke-width="0.5" d="M327.673,311.053c3.067-0.804,7.083-1.864,12.398-3.275 M157.1,304.09
			h28.027c0.343,0.074,0.87,0.204,1.462,0.401c0.252,0.085,0.53,0.173,0.858,0.272"/>
		<path fill="none" stroke="#CCCCCC" stroke-width="0.5" d="M428.629,342.42c11.091-6.576,31.234-19.302,33.507-20.7
			c1.411-0.87,1.307-3.699-0.436-5.006c-2.569-1.928-8.922-5.007-25.684-7.403c-2.484-0.355-4.438-1.014-5.994-1.793"/>
		<path fill="none" stroke="#CCCCCC" stroke-width="0.5" d="M404.016,348.558c4.705,0.038,8.719,0.021,9.58-0.066
			c1.879-0.187,4.568-0.697,7.51-1.955"/>
		<path fill="none" stroke="#CCCCCC" stroke-width="0.5" d="M385.375,317.08c-1.236,13.81-2.378,26.636-2.47,27.276
			c-0.218,1.524,1.114,3.337,3.481,3.701c1.159,0.177,5.567,0.319,10.518,0.408"/>
		<path fill="none" stroke="#CCCCCC" stroke-width="0.5" d="M404.78,284.269c-4.213-2.052-10.263-4.157-12.083-4.561
			c-1.957-0.435-3.915,1.523-4.135,2.832c-0.167,1.007-1.421,14.858-2.708,29.197"/>
		<path fill="none" stroke="#CCCCCC" stroke-width="0.5" d="M423.322,301.78c-2.365-2.563-8.288-9.081-12.415-13.067"/>
		<path fill="none" stroke="#CCCCCC" stroke-width="0.5" d="M389.104,312.067c1.183-13.199,2.399-26.649,2.656-28.795
			c0.096-0.128,0.264-0.272,0.391-0.341c2.202,0.538,8.642,2.891,12.182,4.763"/>
		<path fill="none" stroke="#CCCCCC" stroke-width="0.5" d="M397.289,345.208c-5.07-0.091-9.439-0.229-10.405-0.379
			c-0.387-0.06-0.612-0.2-0.714-0.297c0.152-1.438,0.712-7.652,1.987-21.896c0.158-1.773,0.324-3.619,0.492-5.502"/>
		<path fill="none" stroke="#CCCCCC" stroke-width="0.5" d="M421.215,342.884c-0.054,0.027-0.104,0.053-0.155,0.079
			c-3.108,1.552-5.951,2.098-7.79,2.28c-0.073,0.007-0.837,0.07-4.979,0.07l0,0c-1.242,0-2.573-0.006-3.939-0.017"/>
		<path fill="none" stroke="#CCCCCC" stroke-width="0.5" d="M429.841,311.015c1.595,0.662,3.48,1.211,5.713,1.53
			c16.277,2.327,22.142,5.245,24.188,6.78c0.007,0.006,0.015,0.015,0.021,0.022c-0.639,0.4-1.604,1.005-2.816,1.768
			c-6.051,3.793-19.313,12.107-28.188,17.429"/>
		<path fill="none" stroke="#CCCCCC" stroke-width="0.5" d="M410.439,292.848c3.348,3.381,7.347,7.732,9.468,10.039
			c1.186,1.293,1.767,1.924,2.044,2.202c0.162,0.161,0.332,0.352,0.527,0.562c0.192,0.213,0.41,0.449,0.655,0.706"/>
		<path fill="none" stroke="#CCCCCC" stroke-width="0.5" d="M397.669,341.952c-3.213-0.055-6.053-0.13-7.955-0.206
			c0.308-3.352,0.844-9.33,1.691-18.817l0.208-2.285c0.101-1.125,0.205-2.281,0.311-3.46"/>
		<path fill="none" stroke="#CCCCCC" stroke-width="0.5" d="M421.427,339.055c-0.747,0.42-1.363,0.755-1.826,0.984
			c-2.636,1.318-5.044,1.789-6.611,1.953c-0.174,0.009-1.159,0.057-4.696,0.057l0,0c-1.107-0.017-2.296-0.026-3.515-0.035"/>
		<path fill="none" stroke="#CCCCCC" stroke-width="0.5" d="M429.738,314.471c1.563,0.561,3.339,1.019,5.353,1.307
			c8.976,1.282,14.551,2.732,17.956,3.927c-5.893,3.693-16.304,10.2-24.137,14.937"/>
		<path fill="none" stroke="#CCCCCC" stroke-width="0.5" d="M409.972,297.044c2.876,2.991,5.912,6.295,7.501,8.021
			c1.278,1.39,1.844,2.004,2.166,2.327c0.106,0.112,0.216,0.231,0.336,0.361l0.098,0.105c0.614,0.675,1.511,1.658,2.779,2.712"/>
		<path fill="none" stroke="#CCCCCC" stroke-width="0.5" d="M392.369,312.214c0.867-9.662,1.778-19.771,2.283-25.07
			c3.369,1.201,7.753,3.038,9.256,4.075"/>
		<path fill="none" stroke="#CCCCCC" stroke-width="0.5" d="M398.097,338.695c-1.75-0.031-3.385-0.066-4.818-0.105
			c0.319-3.52,0.769-8.536,1.38-15.371l0.208-2.286l0.151-1.692c0.058-0.646,0.116-1.304,0.176-1.967"/>
		<path fill="none" stroke="#CCCCCC" stroke-width="0.5" d="M421.594,335.196c-1.763,1.027-2.831,1.611-3.454,1.923
			c-2.16,1.08-4.118,1.475-5.405,1.615c-0.235,0.012-1.276,0.049-4.444,0.049l0,0c-1.033,0-2.081-0.003-3.128-0.008"/>
		<path fill="none" stroke="#CCCCCC" stroke-width="0.5" d="M429.583,317.859c1.519,0.486,3.196,0.885,5.047,1.147
			c4.244,0.608,7.664,1.249,10.397,1.86c-6.857,4.276-12.046,7.475-15.965,9.857"/>
		<path fill="none" stroke="#CCCCCC" stroke-width="0.5" d="M409.479,301.259c2.285,2.421,4.451,4.78,5.588,6.016
			c1.396,1.518,1.897,2.062,2.264,2.427c0.042,0.044,0.114,0.125,0.194,0.211l0.131,0.145c0.893,0.981,2.492,2.735,5.022,4.459"/>
		<path fill="none" stroke="#CCCCCC" stroke-width="0.5" d="M395.618,312.548c0.668-7.456,1.369-15.222,1.885-20.807
			c2.375,0.982,4.144,1.852,4.589,2.192c0.35,0.275,0.791,0.667,1.301,1.143"/>
		<path fill="none" stroke="#CCCCCC" stroke-width="0.5" d="M421.854,331.253c-3.076,1.828-4.509,2.614-5.174,2.947
			c-1.673,0.837-3.189,1.158-4.196,1.277c-0.333,0.011-1.421,0.043-4.19,0.043l0,0c-0.893,0-1.812-0.004-2.75-0.009"/>
		<path fill="none" stroke="#CCCCCC" stroke-width="0.5" d="M421.854,331.253"/>
		<path fill="none" stroke="#CCCCCC" stroke-width="0.5" d="M429.442,321.234c1.448,0.42,3.021,0.764,4.723,1.008
			c0.675,0.094,1.338,0.194,1.992,0.294c-2.656,1.642-4.96,3.059-6.96,4.28"/>
		<path fill="none" stroke="#CCCCCC" stroke-width="0.5" d="M408.969,305.491c1.131,1.211,2.359,2.538,3.684,3.98
			c1.375,1.496,1.912,2.081,2.334,2.502l0.052,0.056l0.085,0.098l0.126,0.133c1.179,1.294,3.467,3.807,7.283,6.036"/>
		<path fill="none" stroke="#CCCCCC" stroke-width="0.5" d="M398.875,312.785c0.497-5.53,1.009-11.23,1.451-16.083
			c0.583,0.49,1.454,1.315,2.602,2.468"/>
		<path fill="none" stroke="#CCCCCC" stroke-width="0.5" d="M398.528,335.436c-0.565-0.01-1.126-0.019-1.68-0.03
			c0.28-3.131,0.631-7.057,1.066-11.894l0.205-2.286l0.152-1.694c0.076-0.629,0.149-1.387,0.222-2.207"/>
		<path fill="none" stroke="#CCCCCC" stroke-width="0.5" d="M422.057,327.329c-4.592,2.757-6.254,3.658-6.838,3.95
			c-1.197,0.6-2.271,0.844-2.996,0.94c-0.414,0.011-1.521,0.034-3.933,0.034l0,0c-0.784,0-1.591-0.001-2.412-0.005"/>
		<path fill="none" stroke="#CCCCCC" stroke-width="0.5" d="M408.505,309.789c0.553,0.598,1.135,1.228,1.746,1.892
			c1.363,1.484,1.901,2.071,2.35,2.521l0.114,0.126l0.128,0.143c0.969,1.062,2.616,2.868,5.131,4.735"/>
		<path fill="none" stroke="#CCCCCC" stroke-width="0.5" d="M407.976,314.031c1.231,1.339,1.786,1.941,2.248,2.412l0.079,0.086
			l0.131,0.14c0.561,0.615,1.327,1.457,2.331,2.414"/>
		<path fill="none" stroke="#CCCCCC" stroke-width="0.5" d="M420.324,324.562c-4.704,2.822-6.175,3.604-6.566,3.799
			c-0.724,0.362-1.364,0.526-1.814,0.6c-0.477,0.012-1.555,0.031-3.653,0.031l0,0c-0.661,0-1.342-0.003-2.03-0.005"/>
		<path fill="none" stroke="#CCCCCC" stroke-width="0.5" d="M414.075,324.455c0,0-1.659,0.924-1.783,0.986
			c-0.272,0.136-0.511,0.217-0.694,0.261c-0.529,0.008-1.535,0.022-3.308,0.022l0,0c-0.243,0-0.492,0-0.741,0l0.122-1.342
			l0.099-1.097"/>
	</g>
	<path fill="none" stroke="#CCCCCC" stroke-width="0.5" d="M364.43,394.409c-0.221,2.253-0.448,4.572-0.679,6.925"/>
	<path fill="none" stroke="#CCCCCC" stroke-width="0.5" d="M364.78,385.596c-0.945-0.037-1.865-0.074-2.758-0.107
		c-0.465,4.768-0.995,10.169-1.542,15.746"/>
	<path fill="none" stroke="#CCCCCC" stroke-width="0.5" d="M364.923,382.334c-2.079-0.081-4.037-0.156-5.853-0.229
		c-0.533,5.498-1.18,12.114-1.854,18.985"/>
	<path fill="none" stroke="#CCCCCC" stroke-width="0.5" d="M365.019,379.068c-3.3-0.128-6.298-0.246-8.899-0.348
		c-0.586,6.052-1.362,13.962-2.172,22.227"/>
	<path fill="none" stroke="#CCCCCC" stroke-width="0.5" d="M365.209,375.809c-4.722-0.183-8.831-0.344-12.042-0.474
		c-0.608,6.315-1.52,15.627-2.479,25.42"/>
	<path fill="none" stroke="#CCCCCC" stroke-width="0.5" d="M365.353,372.548c-6.457-0.251-11.688-0.458-15.14-0.599
		c-0.584,6.113-1.654,17.034-2.791,28.622"/>
	<path fill="none" stroke="#CCCCCC" stroke-width="0.5" d="M365.335,369.277c-8.747-0.341-15.3-0.6-18.082-0.72
		c-0.445,4.818-1.728,17.889-3.099,31.888"/>
	<path fill="none" stroke="#CCCCCC" stroke-width="0.5" d="M365.589,366.021c-9.892-0.386-17.342-0.682-19.189-0.77
		c-0.207-0.01-0.399-0.017-0.586-0.017c-0.908,0-1.324,0.123-1.471,0.178c-0.046,0.126-0.139,0.45-0.194,1.179
		c-0.156,2.03-1.695,17.734-3.264,33.734"/>
</g>
<polygon fill="#CCCCCC" stroke="#CCCCCC" points="84.752,495.761 115.225,468.084 104.875,487.745 103.433,486.347 108.283,477.12 
	86.101,497.25 "/>
<text transform="matrix(1 0 0 1 120.1763 459.5518)" fill="#CCCCCC" stroke="#CCCCCC" stroke-width="0.25" font-family="'OpenSans-BoldItalic'" font-size="31.3444">N</text>
<path fill="#CCCCCC" d="M296.821,293.707c0,0.842-0.683,1.525-1.529,1.525c-0.843,0-1.527-0.684-1.527-1.525
	c0-0.846,0.684-1.529,1.527-1.529C296.138,292.178,296.821,292.861,296.821,293.707z"/>
<polygon fill="#CCCCCC" points="296.604,307.157 293.903,307.157 293.391,296.438 297.279,296.438 "/>
<path fill="#CCCCCC" d="M293.587,295.384c0.752-0.023,2.611,0.001,3.34,0.042c0.651,0.039,1.06,0.488,1.076,1.075
	c0.012,0.521,0.115,2.596,0.177,3.871c0.031,0.603-0.276,1.025-0.276,1.025h-5.339c0,0-0.304-0.423-0.268-1.021
	c0.076-1.354,0.203-3.613,0.211-3.928C292.523,295.914,292.988,295.399,293.587,295.384z"/>
<circle fill="#CCCCCC" cx="287.416" cy="293.899" r="1.528"/>
<polygon fill="#CCCCCC" points="290.321,305.844 288.9,305.844 288.738,307.361 286.023,307.383 285.833,305.844 284.38,305.812 
	285.509,300.58 289.222,300.614 "/>
<path fill="#CCCCCC" d="M286.098,295.578c0.751-0.022,1.836,0,2.566,0.043c0.65,0.037,1.059,0.485,1.074,1.073
	c0.014,0.518,0.502,2.597,0.566,3.871c0.03,0.604-0.275,1.025-0.275,1.025h-5.342c0,0-0.302-0.422-0.269-1.021
	c0.078-1.356,0.592-3.613,0.602-3.928C285.033,296.106,285.499,295.595,286.098,295.578z"/>
</svg>
